<?xml version="1.0" encoding="UTF-8"?>
<svg id="Layer_1" data-name="Layer 1" xmlns="http://www.w3.org/2000/svg" viewBox="0 0 612 792">
  <defs>
    <style>
      .cls-1, .cls-2, .cls-3, .cls-4, .cls-5, .cls-6, .cls-7, .cls-8 {
        stroke: #231f20;
      }

      .cls-1, .cls-2, .cls-3, .cls-9, .cls-5, .cls-7 {
        fill: none;
      }

      .cls-1, .cls-3, .cls-4, .cls-5, .cls-8 {
        stroke-miterlimit: 10;
      }

      .cls-10 {
        fill: #fad406;
      }

      .cls-10, .cls-11, .cls-12 {
        font-family: FranklinGothic-Heavy, 'Franklin Gothic Heavy';
        font-size: 143px;
        font-weight: 800;
      }

      .cls-2, .cls-13, .cls-6, .cls-7 {
        stroke-linecap: round;
        stroke-linejoin: round;
      }

      .cls-11 {
        letter-spacing: -.03em;
      }

      .cls-11, .cls-12 {
        fill: #322d14;
      }

      .cls-3 {
        stroke-width: 3px;
      }

      .cls-4, .cls-6, .cls-8 {
        fill: #231f20;
      }

      .cls-13 {
        fill: #ed1c24;
        stroke: #ed1c24;
      }

      .cls-9 {
        stroke-width: 0px;
      }

      .cls-14 {
        letter-spacing: -.05em;
      }

      .cls-5, .cls-6, .cls-7, .cls-8 {
        stroke-width: 2px;
      }

      .cls-15 {
        letter-spacing: -.05em;
      }

      .cls-16, .cls-12 {
        letter-spacing: -.03em;
      }
    </style>
  </defs>
  <text class="cls-10" transform="translate(0 396)"><tspan class="cls-16" x="0" y="0">GOL</tspan><tspan class="cls-14" x="260.7" y="0">D</tspan><tspan class="cls-15" x="350.39" y="0">A</tspan><tspan class="cls-16" x="434.29" y="0">GE</tspan></text>
  <g>
    <text class="cls-12" transform="translate(33.88 500.95)"><tspan x="0" y="0">SCH</tspan></text>
    <path class="cls-3" d="M307.58,470.22c1.04,2.99,2.1,4.77,2.77,8.46.77,4.25.08,5.79.46,7.85,1.26,6.82,12.58,10.22,18,11.85,4.33,1.3,17.93,5.18,33.54-.15,5.67-1.94,13.99-4.78,15.66-10.91.58-2.12.2-4.03,1.42-9.55.23-1.03.75-3.29,2-7.08,2.08-6.33,4.18-10.84,4.62-11.85,3.54-8.12,2.73-24.72-6.77-36-7.41-8.8-17.31-11.06-24.15-12.62-7.14-1.63-19.17-4.37-31.54,2.31-.62.34-15.59,8.7-18.77,24.31-.94,4.63-.42,10.01.62,20.77.57,5.93.89,8.97,2.15,12.62Z"/>
    <path class="cls-8" d="M307.58,468.37c-.65.2-4.04-5.89-5.54-13.85-.6-3.19-1.81-10.03.31-18.46,3.33-13.24,12.39-20.52,15.08-22.62,5.7-4.44,13.42-8.04,15.23-6.15.84.87.37,2.88.77,2.92.53.06.64-3.62,3.23-5.85,1.16-1,2.85-1.72,3.38-1.23.85.78-1.47,4.37-1.08,4.62.35.22,1.88-2.97,5.23-4.77,2.67-1.44,5.74-1.59,6.15-.77.31.62-1.07,1.39-.92,2.92.09.97.78,2.1,1.54,2.15,1.48.11,2.29-3.96,3.69-3.85.98.08.95,2.1,2.77,3.54,1.42,1.12,3.05,1.17,3.69,1.23,4.55.44,16.91,7.28,23.08,19.08,2.56,4.91,3.41,9.44,3.85,11.85.83,4.63.72,8.13.62,11.38-.13,3.93-.41,8.58-2.62,13.85-1.2,2.87-3.05,6.07-3.69,5.85-.44-.15-.05-1.81.15-5.08.29-4.57.35-6.84-.15-8.62-1.28-4.5-4.03-5.38-3.69-8.62.16-1.53.97-1.47,1.69-3.69.63-1.93.64-3.68.31-6.77-.46-4.27-.77-7.07-1.69-9.54-2.92-7.8-12.87-14.65-21.85-14-6.29.46-7.71,4.28-13.89,3.37-4.72-.7-5.26-3.13-10.27-3.68-5.74-.63-10.37,1.98-12.31,3.08-1.79,1.01-7.37,4.26-10.15,11.08-.86,2.11-2.24,6.49-1.38,11.54.74,4.37,2.47,5.23,2.15,8.62-.35,3.77-3.01,4.19-4,8.46-1.53,6.63.9,11.82.31,12Z"/>
    <path class="cls-3" d="M386.82,464.52c1.74.22,2.57,5.49,2.31,8.92-.43,5.6-3.99,9.01-5.23,10.15-1.66,1.54-3.77,3.49-4.77,2.92-2.8-1.59,4.12-22.46,7.69-22Z"/>
    <path class="cls-3" d="M303.74,464.22c-1.92.13-3.19,4.08-3.54,6.31-.74,4.79,1.7,8.57,2.92,10.46.69,1.06,3.79,5.86,5.69,5.23,2.03-.67,1.77-7.22.77-11.69-.9-4.04-3.33-10.48-5.85-10.31Z"/>
    <path class="cls-7" d="M323.74,474.68c.5-2.14,2.46-3.49,4.31-3.23,1.4.2,2.6,1.29,3.08,2.77"/>
    <path class="cls-7" d="M358.81,474.68c.5-2.14,2.46-3.49,4.31-3.23,1.4.2,2.6,1.29,3.08,2.77"/>
    <path class="cls-7" d="M338.35,489.14h13.08c-.06.39-.61,3.52-3.38,4.92-1.23.62-2.41.65-3.08.62-.62.03-2.16.03-3.69-.92-2.44-1.52-2.86-4.21-2.92-4.62Z"/>
    <path class="cls-7" d="M331.58,430.83c1.42.01,3.43.18,5.69.92,1.76.57,2.05.96,3.69,1.38,2.59.67,4.78.44,6,.31,2.56-.28,3.07-.85,5.85-1.38,2.42-.47,4.43-.5,5.69-.46"/>
    <path class="cls-7" d="M331.12,435.97c1.42.01,3.43.18,5.69.92,1.76.57,2.05.96,3.69,1.38,2.59.67,4.78.44,6,.31,2.56-.28,3.07-.85,5.85-1.38,2.42-.47,4.43-.5,5.69-.46"/>
    <path class="cls-6" d="M319.81,452.85c-1.08-.24-1.94-1.92-1.77-3.25.34-2.71,5.02-4.25,8.15-4.46,1.23-.08,4.5-.31,5.54,1.54.49.87.51,2.23-.15,2.77-1.06.87-2.66-1.31-4.96-.75-1.3.32-1.43,1.16-5.13,3.58-.6.39-1.11.7-1.67.58Z"/>
    <path class="cls-6" d="M370.33,452.85c1.08-.24,1.94-1.92,1.77-3.25-.34-2.71-5.02-4.25-8.15-4.46-1.23-.08-4.5-.31-5.54,1.54-.49.87-.51,2.23.15,2.77,1.06.87,2.66-1.31,4.96-.75,1.3.32,1.43,1.16,5.13,3.58.6.39,1.11.7,1.67.58Z"/>
    <path class="cls-7" d="M315.43,470.56c1.35.27,2.69.54,4.04.81"/>
    <path class="cls-7" d="M316.12,474.83c1.12-.19,2.23-.38,3.35-.58"/>
    <g>
      <path class="cls-7" d="M374.14,470.45c-1.35.27-2.69.54-4.04.81"/>
      <path class="cls-7" d="M373.44,474.72c-1.12-.19-2.23-.38-3.35-.58"/>
    </g>
    <g>
      <polyline class="cls-7" points="353.85 483.95 356.97 486.63 356.97 491.33"/>
      <polyline class="cls-7" points="335.96 483.95 332.84 486.63 332.84 491.33"/>
    </g>
    <ellipse class="cls-4" cx="344.98" cy="481.29" rx="1.17" ry="1.73"/>
    <text class="cls-11" transform="translate(512.99 500.95)"><tspan x="0" y="0">L</tspan></text>
    <g>
      <rect class="cls-9" x="-1.86" y="298.71" width="603.83" height="203.02"/>
      <path class="cls-8" d="M419.73,494.48c-1.97.04-9.47-.01-13.68-5.05-3.25-3.9-4.09-10.27-3.5-14.83.26-2.04.77-3.37.17-5.38-1.02-3.4-3.65-3.51-5.5-6.52-2.49-4.04-1.71-10.26,1-14.01,1.94-2.68,3.71-2.49,6-6.03,1.51-2.32,1.94-4.23,2.5-6.19,1.88-6.54,4.67-11.65,5.67-13.36,1.9-3.25,7.06-12.1,14.18-12.54,1.94-.12,3.07.44,5.17-.33,3.29-1.21,3.22-3.58,6.34-5.7,2.08-1.42,2.96-.93,10.51-2.44,6.08-1.22,5.56-1.54,8.51-1.95,6.44-.9,11.65.26,14.01.81,4.1.96,9.39,2.19,14.34,6.52,1.15,1.01,4.83,4.29,7.01,9.61,1.42,3.48.79,4.35,2.31,7.28,1.55,2.99,3.22,4.04,7.7,8.03,6.06,5.4,9.1,8.09,9.84,10.26,1.84,5.34-.5,11.33-1.17,13.03-.99,2.53-1.5,2.49-2.5,5.38-.56,1.62-1.82,5.38-1.5,10.1.27,4.02,1.36,3.78,1.33,6.84-.05,5.29-3.33,9.12-4.17,10.1-.74.87-3.14,3.5-7.17,5.05-3.12,1.2-6.89,1.62-7.34.65-.25-.53.75-.99,1.67-3.42.24-.64.36-1.12.83-1.63.74-.8,1.7-1.02,1.93-1.08,2.27-.61,10.15-7.07,9.75-14.56-.11-2.07-.94-5.77-3.34-6.68-2.21-.84-4.32,1.24-5.84.16-1.14-.81-.73-2.56-.83-5.21-.03-.84-.27-7.16-3.05-10.38-2.26-2.62-4.34-1.05-11.13-3.47-4.54-1.62-11.03-3.93-12.84-8.96-.89-2.48-.49-5.18-2.34-6.03-.71-.33-1.22-.13-3.34,0-2.26.14-3.08,0-5,0-12.02.01-18.68,1.79-18.68,1.79-6.91,1.85-10.52,2.81-12.34,6.03-3.05,5.36,1.29,12.68-2.5,15.48-.65.48-1.96,1.13-3.84,2.77-1.34,1.16-2,1.75-2.5,2.61-1.57,2.7-.12,5-1.33,5.86-1.33.95-3.42-1.57-5.34-.81-2.93,1.15-2.24,8.63-2.17,9.29.23,2.28.74,7.34,4.5,10.1,2.03,1.49,3.4,1.13,5.17,2.93,1.76,1.8,2.32,4.12,2.5,5.86Z"/>
      <path class="cls-5" d="M427.4,454.24c.23-.55,1.51-3.38,4.84-4.72,3.54-1.42,6.66-.07,7.17.16"/>
      <path class="cls-5" d="M482.11,454.24c-.23-.55-1.51-3.38-4.84-4.72-3.54-1.42-6.66-.07-7.17.16"/>
      <path class="cls-5" d="M430.91,477.21c.05-2,1.47-3.68,3.34-4.07,2.12-.44,4.38.88,5,3.1"/>
      <path class="cls-5" d="M469.56,477.21c.05-2,1.47-3.68,3.34-4.07,2.12-.44,4.38.88,5,3.1"/>
      <ellipse class="cls-1" cx="454.8" cy="483.64" rx=".45" ry="1.22"/>
      <path class="cls-7" d="M449.79,489.68h10.03c-.05.29-.47,2.64-2.6,3.69-.94.46-1.84.49-2.36.46-.48.03-1.65.03-2.83-.69-1.87-1.14-2.2-3.15-2.24-3.46Z"/>
      <path class="cls-7" d="M422.4,472.32c1.72.6,3.45,1.19,5.17,1.79"/>
      <path class="cls-7" d="M422.9,476.88c1.61-.05,3.22-.11,4.84-.16"/>
      <path class="cls-7" d="M486.93,472.85c-1.72.6-3.45,1.19-5.17,1.79"/>
      <path class="cls-7" d="M486.43,477.41c-1.61-.05-3.22-.11-4.84-.16"/>
      <ellipse class="cls-13" cx="427.84" cy="482.77" rx="4.94" ry="1.41"/>
      <ellipse class="cls-13" cx="481.59" cy="482.42" rx="4.94" ry="1.41"/>
      <path class="cls-5" d="M414.64,468.04c.69,3.25,1.38,5.5,1.38,5.5,1.06,3.49,1.59,4,2.07,6.22.73,3.38-.2,3.62.31,7.1.27,1.89.85,5.81,3.63,8.43,1.78,1.68,3.75,2.14,6.76,2.81,9.88,2.19,14.82,3.29,15.62,3.38,8.56.93,15.14.24,19.16-.2.13-.01,4.93-.95,14.51-2.81,3.69-.72,6.15-1.23,8.63-3.18.73-.57,3.1-2.48,4.25-5.74.91-2.56.28-3.71.57-7.23.21-2.48.66-3.64,2.18-8.65,0,0,.62-2.06,3.38-11.73,2.51-8.82-4.58-30.02-23.02-40.2-13.94-7.7-34.24-9.03-47.66,1.83-11.12,8.99-13.09,22.77-13.26,24.07-1.07,8.31,1.03,18.18,1.5,20.41Z"/>
      <g>
        <polyline class="cls-2" points="461.8 488.06 464.23 490.15 464.23 493.83"/>
        <polyline class="cls-2" points="447.81 488.06 445.38 490.15 445.38 493.83"/>
      </g>
    </g>
  </g>
</svg>